{"title":"Farewell to the Summer Light (Yoshishige Yoshida, 1968)","uid":7727284,"size":1464665859,"categoryP":"video","categoryS":"movies","magnet":"?xt=urn:btih:8edbba69b3f5ecdf95fc831a6304f40599510759&amp;dn=Farewell+to+the+Summer+Light+%28Yoshishige+Yoshida%2C+1968%29&amp;tr=udp%3A%2F%2Ftracker.openbittorrent.com%3A80&amp;tr=udp%3A%2F%2Fopen.demonii.com%3A1337&amp;tr=udp%3A%2F%2Ftracker.coppersurfer.tk%3A6969&amp;tr=udp%3A%2F%2Fexodus.desync.com%3A6969","seeders":1,"leechers":0,"uploader":"tonioferah","files":2,"time":1350245805,"description":"Before going to university, Kawamura goes on holiday in Europe. In Lissabon he encounters Naoko, who sells furniture and art objects. Kawamura is obsessed by a sketch of a European church he saw in Nagasaki. He came to Europe to see that church with his own eyes. Naoko lost her parents during the bombing of Nagasaki, and tries to forget Japan... A story of attraction and repulsion begins.\n\n\n\n_________________________________________________\n\n\nGeneral\nComplete name                    : D:Farewell to the Summer LightFarewell.to.the.summer.light.avi\nFormat                           : AVI\nFormat/Info                      : Audio Video Interleave\nFile size                        : 1.36 GiB\nDuration                         : 1h 36mn\nOverall bit rate                 : 2 030 Kbps\nWriting application              : VirtualDubMod 1.5.10.2 (build 2540/release)\nWriting library                  : VirtualDubMod build 2540/release\n\nVideo\nID                               : 0\nFormat                           : MPEG-4 Visual\nFormat profile                   : Advanced Simple@L5\nFormat settings, BVOP            : Yes\nFormat settings, QPel            : No\nFormat settings, GMC             : No warppoints\nFormat settings, Matrix          : Default (MPEG)\nMuxing mode                      : Packed bitstream\nCodec ID                         : DX50\nCodec ID/Hint                    : DivX 5\nDuration                         : 1h 36mn\nBit rate                         : 1 637 Kbps\nWidth                            : 704 pixels\nHeight                           : 288 pixels\nDisplay aspect ratio             : 2.40:1\nFrame rate                       : 23.976 fps\nColor space                      : YUV\nChroma subsampling               : 4:2:0\nBit depth                        : 8 bits\nScan type                        : Progressive\nCompression mode                 : Lossy\nBits/(Pixel*Frame)               : 0.337\nStream size                      : 1.10 GiB (81%)\nWriting library                  : XviD 1.2.0.dev47 (UTC 2006-11-01)\n\nAudio\nID                               : 1\nFormat                           : AC-3\nFormat/Info                      : Audio Coding 3\nMode extension                   : CM (complete main)\nCodec ID                         : 2000\nDuration                         : 1h 36mn\nBit rate mode                    : Constant\nBit rate                         : 384 Kbps\nChannel(s)                       : 2 channels\nChannel positions                : Front: L R\nSampling rate                    : 48.0 KHz\nBit depth                        : 16 bits\nCompression mode                 : Lossy\nStream size                      : 264 MiB (19%)\nAlignment                        : Split accross interleaves\nInterleave, duration             : 42 ms (1.00 video frame)\nInterleave, preload duration     : 500 ms","torrent":{"xt":"urn:btih:8edbba69b3f5ecdf95fc831a6304f40599510759","amp;dn":"Farewell+to+the+Summer+Light+%28Yoshishige+Yoshida%2C+1968%29","amp;tr":["udp%3A%2F%2Ftracker.openbittorrent.com%3A80","udp%3A%2F%2Fopen.demonii.com%3A1337","udp%3A%2F%2Ftracker.coppersurfer.tk%3A6969","udp%3A%2F%2Fexodus.desync.com%3A6969"],"infoHash":"8edbba69b3f5ecdf95fc831a6304f40599510759","infoHashBuffer":{"type":"Buffer","data":[142,219,186,105,179,245,236,223,149,252,131,26,99,4,244,5,153,81,7,89]},"announce":[],"urlList":[]}}